<svg xmlns="http://www.w3.org/2000/svg" viewBox="0.0 0.0 38.0 32.0" width="344.664334505731" height="290.137359710879"><defs><style>.cls-1{fill:#061922;}.cls-2{fill:#0050b5;}.cls-3{fill:#fff;}</style></defs><title>Orlando Magic logo</title><path class="cls-1" d="M22.0605.00066A15.936,15.936,0,0,0,8.2498,8.0268H4.12063L6.9145,10.6943,4.19122,14.8994H1.02455L3.68917,17.443,0,23.1401l5.63667-3.3257,1.30623,1.247A15.94932,15.94932,0,1,0,22.0605,0"/><path class="cls-2" d="M10.9046,9.093V6.4832L9.215,9.093H6.7721l1.5101,1.4417L6.4217,13.4074l3.0097-1.7761,1.4732,1.4059V10.7625L13.7334,9.093Z"/><path class="cls-2" d="M7.4634,15.9642V13.5643L5.90979,15.9642H3.67729l1.38014,1.3172L3.33885,19.9356,6.1196,18.2953l1.3438,1.2834V17.5019L10.07,15.9642Z"/><path class="cls-2" d="M22.0294,7.0547a8.14124,8.14124,0,0,0-3.3744.7225l-.1366.0615V5.0163L16.4772,8.1699H13.5203l1.8275,1.7443-.762,1.1754V9.9671l-2.313,3.5727H8.8436l2.1197,2.0231L8.4656,19.4204l4.0408-2.384.7903.7543.0066.0298c.0521.2536.1102.4854.1755.7099l.0369.1251H11.0431l1.8129,1.696-2.1751,3.4144,3.672-2.086a.29468.29468,0,0,1,.1458-.0417.44862.44862,0,0,1,.2698.1284c.0106.0087.1016.0841.2125.1749.1728.1424.3918.3231.4209.3463a14.064,14.064,0,0,0,3.5209,2.1013A8.94074,8.94074,0,1,0,22.0281,7.054"/><path class="cls-3" d="M10.4249,10.487l1.5471-.9132H10.4249V8.1069L9.4756,9.5738H7.9714l.9296.8874-.9692,1.4966L9.5,11.0327l.9249.8834Z"/><path class="cls-3" d="M7.0023,15.1259l-.8418,1.3012H4.83115l.82135.7841-.86094,1.3304,1.394-.8225.8167.7808V17.237l1.3735-.8099H7.0023Z"/><path class="cls-3" d="M22.0294,7.646a8.30173,8.30173,0,0,0-4.0955,1.0821V6.9937l-1.14,1.7609H14.9823l1.1195,1.0688-1.167,1.8039.004-.0026a8.27938,8.27938,0,0,0-.8755,1.9522V11.7346L12.5565,14.063H10.1511l1.4864,1.4191-1.5259,2.3582,2.47-1.4575,1.2811,1.2231a8.33991,8.33991,0,0,0,.3939,1.3774l-.1445.2669H12.5525l1.0741,1.0046L12.41,22.1342l1.6421-.9689a.90136.90136,0,0,1,1.0872.1332c.0139.0106.0396.0337.0785.0668a13.05416,13.05416,0,0,0,3.8686,2.4516A8.349,8.349,0,1,0,22.0301,7.6454"/><path class="cls-2" d="M26.0472,13.2412a6.28057,6.28057,0,0,0-4.0415-4.4853,3.94993,3.94993,0,0,0-2.3803.0788,7.525,7.525,0,0,0-3.162,2.0715,4.02515,4.02515,0,0,1,2.0497-.5695c3.0552,0,5.2237,2.6594,7.5341,2.9051"/><path class="cls-2" d="M26.852,13.2299c1.1334-.1715,1.6322-.9807,1.2383-1.7178a7.51754,7.51754,0,0,0-5.3266-3.0363,6.60693,6.60693,0,0,1,4.0877,4.7535"/><path class="cls-2" d="M26.2424,17.9205a10.37647,10.37647,0,0,0,.165-1.5404c-4.4538-.0689-10.9217-.2265-10.9217-.2265v-.2913s6.4679-.1577,10.9217-.2265a10.37647,10.37647,0,0,0-.165-1.5404c-2.906-.1695-5.0218-3.0694-8.0222-3.0694a3.4187,3.4187,0,0,0-3.2405,2.3072,7.6022,7.6022,0,0,0,.0092,5.3607,3.39633,3.39633,0,0,0,3.2313,2.296C21.2206,20.9899,23.3364,18.0893,26.2424,17.9205Z"/><path class="cls-2" d="M27.2155,15.6239c.9428-.0133,1.7503-.0199,2.3348-.0193a7.49337,7.49337,0,0,0-.83-3.0687c.0152.7463-.5766,1.3801-1.675,1.5364A10.38785,10.38785,0,0,1,27.2155,15.6239Z"/><path class="cls-2" d="M26.0472,18.7747c-2.3111.2457-4.4789,2.9052-7.5341,2.9052a4.03413,4.03413,0,0,1-2.0181-.5516c.1458.1582.2969.3125.4559.4582a7.50979,7.50979,0,0,0,2.8869,1.6503,3.74459,3.74459,0,0,0,2.067.0523,6.25155,6.25155,0,0,0,4.1424-4.5137"/><path class="cls-2" d="M26.852,18.786a6.633,6.633,0,0,1-4.0329,4.7349,7.51681,7.51681,0,0,0,5.2903-3.0582c.3543-.7264-.1458-1.5085-1.258-1.6767"/><path class="cls-2" d="M29.5503,16.4112c-.5839.0007-1.3927-.0066-2.3348-.0192a10.55857,10.55857,0,0,1-.1702,1.5516c1.0958.1563,1.6876.7881,1.675,1.5318a7.55188,7.55188,0,0,0,.8313-3.0622Z"/><path class="cls-3" d="M17.0321,24.8023l-1.3109.5304-.0172-1.443-.6142-.4218L13.4702,25.842l.6083.4178.9124-1.3363.0006.0549.0264,1.2775.0864.0596,1.212-.4636-.0324.047-.8715,1.2781.6076.4179,1.6203-2.3741Z"/><path class="cls-3" d="M24.5436,28.4346a1.57715,1.57715,0,0,0,.2969-1.1304l-.0244-.2265-1.2324.1377-.1834.6404.6868-.0768-.0072.0258a.70137.70137,0,0,1-.5885.5.82831.82831,0,0,1-.6208-.1762.83936.83936,0,0,1-.3048-.5668.82664.82664,0,0,1,.7402-.9212.84229.84229,0,0,1,.6234.1788l.033.0265.4183-.5874-.033-.0232a1.63193,1.63193,0,0,0-.9394-.2913,1.64528,1.64528,0,0,0-1.2502.5781,1.49437,1.49437,0,0,0-.3371,1.1244,1.52351,1.52351,0,0,0,1.4012,1.3503,1.71054,1.71054,0,0,0,.3444-.004,1.40781,1.40781,0,0,0,.977-.5576"/><path class="cls-3" d="M26.2868,25.1864l-.6871.2886,1.1062,2.6544.6871-.2885Z"/><path class="cls-3" d="M30.2588,25.1089a.988.988,0,0,1-.3397.4391.82628.82628,0,1,1-.9949-1.3179.98761.98761,0,0,1,.5133-.2099l.0725-.006-.4426-.5867-.0244.0053a1.40143,1.40143,0,0,0-.5694.2682,1.59249,1.59249,0,0,0-.6261,1.0331,1.52457,1.52457,0,0,0,1.2799,1.7138l.0158.002a1.56536,1.56536,0,0,0,1.1618-.3245,1.42244,1.42244,0,0,0,.4136-.4741l.0113-.0226-.4454-.5893-.025.0688Z"/><path class="cls-3" d="M34.3926,20.1647a1.53,1.53,0,0,0-.9249-1.9754,1.47433,1.47433,0,0,0-1.1585.0907,1.57081,1.57081,0,0,0-.6557.647,1.67184,1.67184,0,0,0-.1188.2735,1.54921,1.54921,0,0,0,.9329,1.9748,1.46379,1.46379,0,0,0,1.1545-.0927,1.59351,1.59351,0,0,0,.7705-.9172m-1.4197.3331a.84047.84047,0,0,1-.2672-.0444.8081.8081,0,0,1-.5106-1.0304.81768.81768,0,0,1,.4104-.4755.81822.81822,0,0,1,1.0872.3669.82233.82233,0,0,1,.0396.6271.97543.97543,0,0,1-.0594.1371.792.792,0,0,1-.6993.4192"/><path class="cls-3" d="M23.0731,4.3846a1.47539,1.47539,0,0,0-.5053-1.045,1.57877,1.57877,0,0,0-1.049-.3894c-.027,0-.0547.0007-.0824.002a1.52611,1.52611,0,0,0-1.497,1.5834,1.48633,1.48633,0,0,0,.5054,1.0509,1.56422,1.56422,0,0,0,.8392.3775,1.64039,1.64039,0,0,0,.2968.0119,1.5444,1.5444,0,0,0,1.4923-1.5906m-.9619.6244a.80453.80453,0,0,1-.5647.2662l-.0409.0014a.81324.81324,0,0,1-.0369-1.6258.92135.92135,0,0,1,.1484.006.799.799,0,0,1,.6993.7675.81181.81181,0,0,1-.2058.5854"/><path class="cls-3" d="M25.1902,6.3918l.855.2622-.4124-1.2165.0212-.0026a.92.92,0,0,0,.7976-.6311c.188-.6185-.128-1.0728-.9151-1.3145l-.7817-.2398-.8379,2.7522.7125.2186.2402-.7894.3199.9615Zm.0811-2.2807.1194.0364a.54488.54488,0,0,1,.3418.2258.28415.28415,0,0,1,.0112.2252.33287.33287,0,0,1-.1986.2251.42021.42021,0,0,1-.1563.0279.68129.68129,0,0,1-.1947-.0312l-.1266-.039Z"/><path class="cls-3" d="M28.3239,8.056l.378-.5696-.7838-.5238.0099-.0145,1.2027-1.8112-.6201-.4146-1.59,2.3953Z"/><path class="cls-3" d="M31.9081,7.6156l-2.9311.9317.4862.6086.4169-.1437.008.0099.6537.8186-.0059.0105-.2236.3669.5007.6258,1.5411-2.6707-.4453-.5576ZM30.8776,9.293l-.3899-.4874.8689-.2967-.479.7848Z"/><path class="cls-3" d="M19.4348,25.7817l-1.7252,2.5549.7573.1748.2389-.3722,1.0305.2378.0013.0125.0514.4265.7792.1801-.4401-3.0541-.694-.1603Zm-.38,1.8172.0138-.0212.4843-.7523.1088.9138Z"/><path class="cls-3" d="M32.8555,11.5664l-.031.045-1.0727,1.5775.2322.6582,2.7016-.9622-.2488-.7046-1.4923.5318,1.1077-1.6205L33.818,10.43l-2.7015.9629.2493.704Z"/><path class="cls-3" d="M34.993,15.559l-.0079-.8835-2.8672.0265.0079.8914a1.36923,1.36923,0,0,0,1.2522,1.496c.0653.0059.1339.0072.1992.0079a1.45346,1.45346,0,0,0,.9599-.349,1.51723,1.51723,0,0,0,.4565-1.1893m-1.423.7907h-.0072A.74952.74952,0,0,1,33,16.1338a.75813.75813,0,0,1-.192-.5172l-.002-.1742,1.5042-.0139.0013.1735a.70342.70342,0,0,1-.7415.7477"/><path class="cls-2" d="M22.0565,1.2324A14.62758,14.62758,0,0,0,11.9641,5.27v.8278A14.17625,14.17625,0,1,1,8.7697,20.8051l-.5172.3053A14.72393,14.72393,0,1,0,22.0565,1.2331"/></svg>